<mxfile>
    <diagram id="ds8b22ceg_Icyok-Jhpl" name="Page-1">
        <mxGraphModel dx="1117" dy="790" grid="1" gridSize="10" guides="1" tooltips="1" connect="1" arrows="1" fold="1" page="1" pageScale="1" pageWidth="1169" pageHeight="1654" math="0" shadow="0">
            <root>
                <mxCell id="0"/>
                <mxCell id="1" parent="0"/>
                <mxCell id="36" style="edgeStyle=orthogonalEdgeStyle;rounded=0;orthogonalLoop=1;jettySize=auto;html=1;entryX=0.5;entryY=0;entryDx=0;entryDy=0;" edge="1" parent="1" source="2" target="23">
                    <mxGeometry relative="1" as="geometry"/>
                </mxCell>
                <mxCell id="2" value="" style="ellipse;fillColor=#000000;strokeColor=none;" vertex="1" parent="1">
                    <mxGeometry x="345" y="160" width="30" height="30" as="geometry"/>
                </mxCell>
                <mxCell id="3" value="" style="ellipse;html=1;shape=endState;fillColor=#000000;strokeColor=#000000;" vertex="1" parent="1">
                    <mxGeometry x="425" y="990" width="30" height="30" as="geometry"/>
                </mxCell>
                <mxCell id="56" style="edgeStyle=orthogonalEdgeStyle;rounded=0;orthogonalLoop=1;jettySize=auto;html=1;entryX=0;entryY=0.5;entryDx=0;entryDy=0;" edge="1" parent="1" source="21" target="55">
                    <mxGeometry relative="1" as="geometry"/>
                </mxCell>
                <mxCell id="69" style="edgeStyle=orthogonalEdgeStyle;rounded=0;orthogonalLoop=1;jettySize=auto;html=1;entryX=0.5;entryY=0;entryDx=0;entryDy=0;" edge="1" parent="1" source="21" target="68">
                    <mxGeometry relative="1" as="geometry"/>
                </mxCell>
                <mxCell id="21" value="&lt;p class=&quot;MsoNormal&quot;&gt;Operación mostrar tópico&lt;/p&gt;" style="html=1;align=center;verticalAlign=top;rounded=1;absoluteArcSize=1;arcSize=10;dashed=0;" vertex="1" parent="1">
                    <mxGeometry x="250" y="590" width="380" height="200" as="geometry"/>
                </mxCell>
                <mxCell id="49" style="edgeStyle=orthogonalEdgeStyle;rounded=0;orthogonalLoop=1;jettySize=auto;html=1;entryX=0;entryY=0.25;entryDx=0;entryDy=0;" edge="1" parent="1" source="23" target="44">
                    <mxGeometry relative="1" as="geometry"/>
                </mxCell>
                <mxCell id="23" value="Inicio de seción" style="swimlane;fontStyle=4;align=center;verticalAlign=top;childLayout=stackLayout;horizontal=1;startSize=60;horizontalStack=0;resizeParent=1;resizeParentMax=0;resizeLast=0;collapsible=0;marginBottom=0;html=1;rounded=1;absoluteArcSize=1;arcSize=50;" vertex="1" parent="1">
                    <mxGeometry x="250" y="280" width="220" height="193" as="geometry"/>
                </mxCell>
                <mxCell id="30" value="Usuario = nombre de usuario" style="fillColor=none;strokeColor=none;align=left;verticalAlign=middle;spacingLeft=5;" vertex="1" parent="23">
                    <mxGeometry y="60" width="220" height="25" as="geometry"/>
                </mxCell>
                <mxCell id="31" value="Contraseña = contraseña de usuairo" style="fillColor=none;strokeColor=none;align=left;verticalAlign=middle;spacingLeft=5;" vertex="1" parent="23">
                    <mxGeometry y="85" width="220" height="25" as="geometry"/>
                </mxCell>
                <mxCell id="28" value="" style="line;strokeWidth=1;fillColor=none;align=left;verticalAlign=middle;spacingTop=-1;spacingLeft=3;spacingRight=3;rotatable=0;labelPosition=right;points=[];portConstraint=eastwest;" vertex="1" parent="23">
                    <mxGeometry y="110" width="220" height="8" as="geometry"/>
                </mxCell>
                <mxCell id="29" value="entrada/comprueva datos" style="fillColor=none;strokeColor=none;align=left;verticalAlign=middle;spacingLeft=5;" vertex="1" parent="23">
                    <mxGeometry y="118" width="220" height="25" as="geometry"/>
                </mxCell>
                <mxCell id="34" value="entrada/comprueba permisos" style="fillColor=none;strokeColor=none;align=left;verticalAlign=middle;spacingLeft=5;" vertex="1" parent="23">
                    <mxGeometry y="143" width="220" height="25" as="geometry"/>
                </mxCell>
                <mxCell id="33" value="salida/permite entrar" style="fillColor=none;strokeColor=none;align=left;verticalAlign=middle;spacingLeft=5;" vertex="1" parent="23">
                    <mxGeometry y="168" width="220" height="25" as="geometry"/>
                </mxCell>
                <mxCell id="38" value="&lt;span style=&quot;font-weight: 700&quot;&gt;Busqueda de tópico&lt;/span&gt;" style="swimlane;fontStyle=4;align=center;verticalAlign=top;childLayout=stackLayout;horizontal=1;startSize=60;horizontalStack=0;resizeParent=1;resizeParentMax=0;resizeLast=0;collapsible=0;marginBottom=0;html=1;rounded=1;absoluteArcSize=1;arcSize=50;" vertex="1" parent="1">
                    <mxGeometry x="610" y="280" width="190" height="168" as="geometry"/>
                </mxCell>
                <mxCell id="42" value="Tóico = nombre de tópico" style="fillColor=none;strokeColor=none;align=left;verticalAlign=middle;spacingLeft=5;" vertex="1" parent="38">
                    <mxGeometry y="60" width="190" height="25" as="geometry"/>
                </mxCell>
                <mxCell id="43" value="" style="line;strokeWidth=1;fillColor=none;align=left;verticalAlign=middle;spacingTop=-1;spacingLeft=3;spacingRight=3;rotatable=0;labelPosition=right;points=[];portConstraint=eastwest;" vertex="1" parent="38">
                    <mxGeometry y="85" width="190" height="8" as="geometry"/>
                </mxCell>
                <mxCell id="44" value="entrada/busca el tópico" style="fillColor=none;strokeColor=none;align=left;verticalAlign=middle;spacingLeft=5;" vertex="1" parent="38">
                    <mxGeometry y="93" width="190" height="25" as="geometry"/>
                </mxCell>
                <mxCell id="46" value="entrada/busca anexos de tópico" style="fillColor=none;strokeColor=none;align=left;verticalAlign=middle;spacingLeft=5;" vertex="1" parent="38">
                    <mxGeometry y="118" width="190" height="25" as="geometry"/>
                </mxCell>
                <mxCell id="47" value="salida/finaliza busqueda" style="fillColor=none;strokeColor=none;align=left;verticalAlign=middle;spacingLeft=5;" vertex="1" parent="38">
                    <mxGeometry y="143" width="190" height="25" as="geometry"/>
                </mxCell>
                <mxCell id="54" style="edgeStyle=orthogonalEdgeStyle;rounded=0;orthogonalLoop=1;jettySize=auto;html=1;exitX=0.5;exitY=1;exitDx=0;exitDy=0;entryX=0.5;entryY=0;entryDx=0;entryDy=0;" edge="1" parent="1" source="50" target="21">
                    <mxGeometry relative="1" as="geometry"/>
                </mxCell>
                <mxCell id="93" style="edgeStyle=orthogonalEdgeStyle;rounded=0;orthogonalLoop=1;jettySize=auto;html=1;entryX=1;entryY=0.5;entryDx=0;entryDy=0;" edge="1" parent="1" source="50" target="92">
                    <mxGeometry relative="1" as="geometry"/>
                </mxCell>
                <mxCell id="50" value="" style="rhombus;" vertex="1" parent="1">
                    <mxGeometry x="690" y="500" width="30" height="30" as="geometry"/>
                </mxCell>
                <mxCell id="52" style="edgeStyle=orthogonalEdgeStyle;rounded=0;orthogonalLoop=1;jettySize=auto;html=1;entryX=0.5;entryY=0;entryDx=0;entryDy=0;" edge="1" parent="1" source="47" target="50">
                    <mxGeometry relative="1" as="geometry"/>
                </mxCell>
                <mxCell id="85" style="edgeStyle=orthogonalEdgeStyle;rounded=0;orthogonalLoop=1;jettySize=auto;html=1;entryX=0.5;entryY=0;entryDx=0;entryDy=0;" edge="1" parent="1" source="55" target="84">
                    <mxGeometry relative="1" as="geometry"/>
                </mxCell>
                <mxCell id="55" value="Operación mostrar anexo" style="html=1;align=center;verticalAlign=top;rounded=1;absoluteArcSize=1;arcSize=10;dashed=0;" vertex="1" parent="1">
                    <mxGeometry x="720" y="585" width="430" height="210" as="geometry"/>
                </mxCell>
                <mxCell id="61" style="edgeStyle=orthogonalEdgeStyle;rounded=0;orthogonalLoop=1;jettySize=auto;html=1;" edge="1" parent="1" source="58" target="60">
                    <mxGeometry relative="1" as="geometry"/>
                </mxCell>
                <mxCell id="58" value="&lt;p class=&quot;MsoNormal&quot;&gt;Se muestra tópico&amp;nbsp;&lt;/p&gt;&lt;p class=&quot;MsoNormal&quot;&gt;en pantalla&amp;nbsp;&lt;/p&gt;" style="html=1;align=center;verticalAlign=top;rounded=1;absoluteArcSize=1;arcSize=10;dashed=0;" vertex="1" parent="1">
                    <mxGeometry x="260" y="640" width="100" height="70" as="geometry"/>
                </mxCell>
                <mxCell id="63" style="edgeStyle=orthogonalEdgeStyle;rounded=0;orthogonalLoop=1;jettySize=auto;html=1;" edge="1" parent="1" source="60" target="62">
                    <mxGeometry relative="1" as="geometry"/>
                </mxCell>
                <mxCell id="60" value="&lt;p class=&quot;MsoNormal&quot;&gt;Esperar acción&amp;nbsp;&lt;/p&gt;&lt;p class=&quot;MsoNormal&quot;&gt;de usuario&amp;nbsp;&lt;/p&gt;" style="html=1;align=center;verticalAlign=top;rounded=1;absoluteArcSize=1;arcSize=10;dashed=0;" vertex="1" parent="1">
                    <mxGeometry x="395" y="637.5" width="90" height="75" as="geometry"/>
                </mxCell>
                <mxCell id="67" style="edgeStyle=orthogonalEdgeStyle;rounded=0;orthogonalLoop=1;jettySize=auto;html=1;entryX=0.5;entryY=0;entryDx=0;entryDy=0;" edge="1" parent="1" source="62" target="66">
                    <mxGeometry relative="1" as="geometry"/>
                </mxCell>
                <mxCell id="62" value="&lt;p class=&quot;MsoNormal&quot;&gt;Abrir tópico&amp;nbsp;&lt;/p&gt;" style="html=1;align=center;verticalAlign=top;rounded=1;absoluteArcSize=1;arcSize=20;dashed=0;" vertex="1" parent="1">
                    <mxGeometry x="520" y="642.5" width="90" height="65" as="geometry"/>
                </mxCell>
                <mxCell id="65" style="edgeStyle=orthogonalEdgeStyle;rounded=0;orthogonalLoop=1;jettySize=auto;html=1;entryX=0.5;entryY=1;entryDx=0;entryDy=0;" edge="1" parent="1" source="64" target="58">
                    <mxGeometry relative="1" as="geometry"/>
                </mxCell>
                <mxCell id="64" value="" style="ellipse;fillColor=#000000;strokeColor=none;" vertex="1" parent="1">
                    <mxGeometry x="295" y="750" width="30" height="30" as="geometry"/>
                </mxCell>
                <mxCell id="66" value="" style="ellipse;html=1;shape=endState;fillColor=#000000;strokeColor=#000000;" vertex="1" parent="1">
                    <mxGeometry x="550" y="750" width="30" height="30" as="geometry"/>
                </mxCell>
                <mxCell id="70" style="edgeStyle=orthogonalEdgeStyle;rounded=0;orthogonalLoop=1;jettySize=auto;html=1;entryX=0.5;entryY=0;entryDx=0;entryDy=0;" edge="1" parent="1" source="68" target="3">
                    <mxGeometry relative="1" as="geometry"/>
                </mxCell>
                <mxCell id="68" value="&lt;p class=&quot;MsoNormal&quot;&gt;Mostrar contenido&amp;nbsp;&lt;/p&gt;&lt;p class=&quot;MsoNormal&quot;&gt;de tópico&amp;nbsp;&lt;/p&gt;" style="html=1;align=center;verticalAlign=top;rounded=1;absoluteArcSize=1;arcSize=10;dashed=0;" vertex="1" parent="1">
                    <mxGeometry x="385" y="850" width="110" height="80" as="geometry"/>
                </mxCell>
                <mxCell id="73" style="edgeStyle=orthogonalEdgeStyle;rounded=0;orthogonalLoop=1;jettySize=auto;html=1;entryX=0;entryY=0.5;entryDx=0;entryDy=0;" edge="1" parent="1" source="71" target="72">
                    <mxGeometry relative="1" as="geometry"/>
                </mxCell>
                <mxCell id="71" value="&lt;p class=&quot;MsoNormal&quot;&gt;Mostrar anexos&amp;nbsp;&lt;/p&gt;&lt;p class=&quot;MsoNormal&quot;&gt;relacionados&amp;nbsp;&lt;/p&gt;" style="html=1;align=center;verticalAlign=top;rounded=1;absoluteArcSize=1;arcSize=10;dashed=0;" vertex="1" parent="1">
                    <mxGeometry x="740" y="632.5" width="90" height="75" as="geometry"/>
                </mxCell>
                <mxCell id="76" style="edgeStyle=orthogonalEdgeStyle;rounded=0;orthogonalLoop=1;jettySize=auto;html=1;" edge="1" parent="1" source="72" target="75">
                    <mxGeometry relative="1" as="geometry"/>
                </mxCell>
                <mxCell id="72" value="&lt;p class=&quot;MsoNormal&quot;&gt;Esperar acción&amp;nbsp;&lt;/p&gt;&lt;p class=&quot;MsoNormal&quot;&gt;de usuario&amp;nbsp;&lt;/p&gt;" style="html=1;align=center;verticalAlign=top;rounded=1;absoluteArcSize=1;arcSize=10;dashed=0;" vertex="1" parent="1">
                    <mxGeometry x="890" y="632.5" width="90" height="75" as="geometry"/>
                </mxCell>
                <mxCell id="81" style="edgeStyle=orthogonalEdgeStyle;rounded=0;orthogonalLoop=1;jettySize=auto;html=1;entryX=0.5;entryY=0;entryDx=0;entryDy=0;" edge="1" parent="1" source="75" target="80">
                    <mxGeometry relative="1" as="geometry"/>
                </mxCell>
                <mxCell id="75" value="&lt;p class=&quot;MsoNormal&quot;&gt;Abrir anexo&amp;nbsp;&lt;/p&gt;" style="html=1;align=center;verticalAlign=top;rounded=1;absoluteArcSize=1;arcSize=10;dashed=0;" vertex="1" parent="1">
                    <mxGeometry x="1020" y="630" width="90" height="80" as="geometry"/>
                </mxCell>
                <mxCell id="79" style="edgeStyle=orthogonalEdgeStyle;rounded=0;orthogonalLoop=1;jettySize=auto;html=1;entryX=0.5;entryY=1;entryDx=0;entryDy=0;" edge="1" parent="1" source="77" target="71">
                    <mxGeometry relative="1" as="geometry"/>
                </mxCell>
                <mxCell id="77" value="" style="ellipse;fillColor=#000000;strokeColor=none;" vertex="1" parent="1">
                    <mxGeometry x="770" y="750" width="30" height="30" as="geometry"/>
                </mxCell>
                <mxCell id="80" value="" style="ellipse;html=1;shape=endState;fillColor=#000000;strokeColor=#000000;" vertex="1" parent="1">
                    <mxGeometry x="1050" y="750" width="30" height="30" as="geometry"/>
                </mxCell>
                <mxCell id="87" style="edgeStyle=orthogonalEdgeStyle;rounded=0;orthogonalLoop=1;jettySize=auto;html=1;entryX=0.5;entryY=0;entryDx=0;entryDy=0;" edge="1" parent="1" source="84" target="86">
                    <mxGeometry relative="1" as="geometry"/>
                </mxCell>
                <mxCell id="84" value="Mostrar contenido&lt;br&gt;de anexo" style="html=1;align=center;verticalAlign=top;rounded=1;absoluteArcSize=1;arcSize=10;dashed=0;" vertex="1" parent="1">
                    <mxGeometry x="882.5" y="860" width="105" height="60" as="geometry"/>
                </mxCell>
                <mxCell id="86" value="" style="ellipse;html=1;shape=endState;fillColor=#000000;strokeColor=#000000;" vertex="1" parent="1">
                    <mxGeometry x="920" y="990" width="30" height="30" as="geometry"/>
                </mxCell>
                <mxCell id="88" value="Ingresa datos de usuario" style="text;html=1;strokeColor=none;fillColor=none;align=center;verticalAlign=middle;whiteSpace=wrap;rounded=0;" vertex="1" parent="1">
                    <mxGeometry x="370" y="220" width="40" height="20" as="geometry"/>
                </mxCell>
                <mxCell id="90" value="Ingresa datos de tópico" style="text;html=1;strokeColor=none;fillColor=none;align=center;verticalAlign=middle;whiteSpace=wrap;rounded=0;" vertex="1" parent="1">
                    <mxGeometry x="510" y="330" width="40" height="20" as="geometry"/>
                </mxCell>
                <mxCell id="91" value="Encontro tópico" style="text;html=1;strokeColor=none;fillColor=none;align=center;verticalAlign=middle;whiteSpace=wrap;rounded=0;" vertex="1" parent="1">
                    <mxGeometry x="730" y="530" width="40" height="20" as="geometry"/>
                </mxCell>
                <mxCell id="94" style="edgeStyle=orthogonalEdgeStyle;rounded=0;orthogonalLoop=1;jettySize=auto;html=1;entryX=0;entryY=0.25;entryDx=0;entryDy=0;" edge="1" parent="1" source="92" target="46">
                    <mxGeometry relative="1" as="geometry"/>
                </mxCell>
                <mxCell id="92" value="Buscar tópico &lt;br&gt;relacionado" style="html=1;align=center;verticalAlign=top;rounded=1;absoluteArcSize=1;arcSize=10;dashed=0;" vertex="1" parent="1">
                    <mxGeometry x="510" y="495" width="100" height="40" as="geometry"/>
                </mxCell>
                <mxCell id="95" value="No encontro tópico" style="text;html=1;strokeColor=none;fillColor=none;align=center;verticalAlign=middle;whiteSpace=wrap;rounded=0;" vertex="1" parent="1">
                    <mxGeometry x="630" y="480" width="40" height="20" as="geometry"/>
                </mxCell>
            </root>
        </mxGraphModel>
    </diagram>
</mxfile>